<?xml version="1.0" standalone="no"?>
<!DOCTYPE svg PUBLIC "-//W3C//DTD SVG 20010904//EN"
 "http://www.w3.org/TR/2001/REC-SVG-20010904/DTD/svg10.dtd">
<svg version="1.0" xmlns="http://www.w3.org/2000/svg"
 width="750.000000pt" height="750.000000pt" viewBox="0 0 750.000000 750.000000"
 preserveAspectRatio="xMidYMid meet">
<metadata>
Created by potrace 1.14, written by Peter Selinger 2001-2017
</metadata>
<g transform="translate(0.000000,750.000000) scale(0.100000,-0.100000)"
fill="#000000" stroke="none">
<path d="M5934 7275 c-16 -12 -17 -14 -2 -15 9 0 20 -9 23 -20 6 -19 26 -29
24 -12 -4 24 1 32 14 21 11 -10 14 -38 8 -71 -3 -19 -31 -6 -32 15 -1 21 -1
21 -8 -3 -8 -27 10 -41 45 -36 21 3 30 50 19 93 -5 23 -9 24 -42 18 -30 -5
-35 -4 -30 9 8 20 6 20 -19 1z"/>
<path d="M6080 7260 c0 -5 -7 -7 -15 -4 -13 5 -13 3 -1 -21 12 -24 12 -33 -1
-69 -8 -22 -15 -60 -14 -84 1 -28 -4 -44 -13 -48 -9 -3 -14 -20 -14 -42 0 -64
-1 -68 -34 -83 -24 -10 -34 -22 -36 -40 -3 -27 -42 -73 -42 -50 0 6 7 14 15
17 8 4 15 10 15 14 0 13 -29 20 -36 8 -4 -7 -3 -8 4 -4 7 4 12 2 12 -4 0 -6
-7 -13 -15 -16 -8 -4 -13 -10 -10 -14 13 -20 -15 -18 -30 2 l-17 23 5 -22 c3
-12 1 -23 -4 -25 -5 -2 -11 -19 -13 -38 -6 -48 -6 -48 -17 -25 -8 18 -8 -9 3
-122 1 -7 8 -13 15 -13 8 0 12 -4 8 -9 -3 -5 3 -12 12 -14 13 -3 14 -5 3 -6
-11 -1 -16 -14 -18 -48 -2 -51 -21 -84 -24 -42 -3 36 -6 63 -8 72 -4 13 -7 27
-9 37 0 5 -7 7 -14 4 -24 -9 -38 61 -21 101 8 19 14 38 13 42 -4 25 3 35 21
30 22 -6 30 13 25 53 -2 14 -4 32 -5 40 -1 8 -8 -5 -17 -28 -13 -38 -19 -43
-39 -39 -13 2 -23 1 -22 -2 0 -3 0 -17 -1 -30 -1 -23 -2 -24 -21 -6 -14 13
-18 26 -15 46 4 19 1 29 -7 30 -7 1 -21 2 -32 3 -11 0 -28 20 -45 51 -24 47
-26 48 -29 23 -2 -16 -7 -28 -13 -28 -5 0 -1 -9 8 -19 9 -11 22 -17 29 -14 8
3 14 -1 14 -11 0 -9 -6 -13 -14 -10 -20 8 -29 -12 -15 -34 9 -15 8 -36 -6 -98
-10 -43 -20 -85 -21 -91 -1 -7 -9 -19 -17 -28 -14 -13 -16 -12 -22 15 -8 34
-24 40 -32 10 -3 -11 -10 -20 -15 -20 -5 0 -9 -21 -9 -47 0 -27 -2 -81 -5
-121 -3 -40 -2 -81 2 -90 4 -9 6 -20 6 -24 -2 -7 4 -8 36 -8 4 0 7 7 7 15 0 8
4 15 8 15 4 0 12 0 18 0 5 0 8 -4 4 -9 -3 -5 -1 -12 5 -16 6 -4 8 -11 5 -16
-4 -5 0 -9 7 -9 35 -1 39 -15 22 -83 -17 -67 -17 -67 -53 -68 l-36 -2 35 -6
c65 -11 16 -18 -63 -9 -44 5 -82 7 -85 3 -11 -11 22 -24 78 -30 76 -9 80 -11
80 -40 0 -14 5 -25 10 -25 6 0 10 7 10 15 0 8 6 12 14 9 8 -3 12 -12 9 -20 -6
-17 23 -19 31 -1 3 6 4 -7 1 -29 -4 -31 -1 -43 10 -48 8 -3 15 -10 15 -16 0
-15 -30 -12 -31 3 0 6 -6 -4 -13 -23 -7 -19 -11 -41 -8 -49 4 -10 -1 -12 -16
-7 -15 5 -22 2 -27 -13 -3 -10 -28 -49 -55 -85 -27 -36 -46 -66 -42 -66 4 0
18 16 30 34 15 22 35 37 54 41 19 5 28 12 24 20 -2 7 2 16 10 19 8 3 14 0 14
-6 0 -21 -44 -138 -52 -138 -4 0 -8 -10 -8 -23 0 -13 -3 -27 -7 -31 -5 -4 -8
-11 -9 -14 -2 -31 -17 -71 -25 -67 -5 4 -6 -1 -3 -9 3 -8 0 -24 -6 -36 -11
-21 -12 -21 -25 -3 -14 19 -14 22 -14 -70 -1 -15 -7 -30 -16 -33 -10 -4 -13
-13 -10 -25 4 -13 1 -19 -8 -19 -8 0 -20 -13 -26 -30 -11 -34 -31 -40 -31 -11
0 11 -4 23 -10 26 -5 3 -10 0 -10 -7 0 -29 -19 18 -25 64 -6 45 -25 78 -25 44
0 -28 24 -121 33 -127 10 -7 -8 -107 -29 -158 -14 -33 -14 -33 11 -27 15 4 25
2 25 -4 0 -6 -4 -9 -9 -6 -5 3 -12 -4 -15 -17 -7 -21 -8 -21 -15 -2 -6 16 -10
11 -24 -28 -11 -34 -13 -55 -7 -72 5 -14 6 -25 3 -25 -4 0 -2 -5 5 -12 15 -15
15 -53 1 -80 -8 -15 -8 -19 0 -14 14 9 14 10 -9 -53 -17 -47 -17 -55 -4 -68
12 -13 12 -46 -2 -62 -8 -9 -24 13 -24 34 0 13 -6 30 -14 37 -20 20 -18 105 3
181 11 39 16 69 10 72 -5 4 -9 15 -9 26 0 10 -6 19 -14 19 -20 0 -27 14 -43
79 -9 40 -11 45 -8 16 3 -22 5 -54 5 -71 0 -23 5 -33 20 -37 11 -3 20 -11 20
-17 0 -10 -20 -11 -84 -6 -71 6 -86 4 -100 -10 -25 -24 -9 -34 67 -41 64 -6
77 -14 59 -38 -13 -18 -51 -35 -79 -35 -49 0 -73 -28 -36 -41 10 -3 18 -10 18
-15 1 -5 8 -22 17 -39 l17 -30 1 27 c0 34 6 37 55 29 37 -6 40 -8 37 -37 -2
-20 3 -36 17 -48 11 -10 23 -31 26 -46 3 -16 13 -31 21 -34 29 -11 5 -76 -30
-76 -9 0 -16 8 -17 18 0 14 -2 14 -9 -3 -13 -29 -12 -35 5 -35 8 0 15 -5 15
-11 0 -6 -7 -8 -15 -5 -12 4 -14 2 -7 -10 13 -24 3 -66 -15 -60 -9 4 -13 1
-11 -6 3 -7 -1 -19 -9 -26 -7 -7 -13 -24 -13 -36 0 -13 -11 -59 -25 -102 -14
-43 -27 -95 -29 -115 -1 -20 -5 -40 -8 -45 -3 -5 -11 -26 -18 -47 l-12 -39
-47 6 c-80 10 -419 36 -601 45 -96 5 -176 10 -177 10 -2 1 -3 8 -3 18 0 14 -2
14 -20 -2 -11 -10 -20 -24 -20 -31 0 -7 -8 -15 -18 -18 -28 -9 -66 -66 -54
-78 7 -7 21 0 43 23 l32 34 -21 -35 c-28 -47 -46 -57 -65 -38 -15 14 -14 19 3
54 11 21 19 38 17 39 -10 9 -392 24 -400 16 -5 -5 -18 -1 -33 12 -18 15 -23
29 -21 52 3 22 -3 41 -20 61 l-23 29 0 -41 c0 -41 -5 -55 -49 -126 -23 -38
-36 -43 -79 -32 -17 5 -22 13 -20 33 2 34 -11 59 -22 41 -8 -14 14 -75 35
-100 7 -8 15 -30 17 -49 3 -34 4 -35 46 -34 42 1 62 -10 42 -22 -31 -19 -1
-25 107 -23 108 3 118 5 123 23 6 23 1 22 155 24 93 1 105 3 106 19 0 16 1 16
8 -1 4 -10 11 -18 16 -17 6 0 11 -11 13 -25 2 -15 9 -28 15 -30 7 -2 140 -9
297 -15 157 -5 413 -15 569 -21 225 -9 285 -9 291 1 5 9 9 9 14 1 4 -6 12 -9
17 -6 5 4 9 2 9 -3 0 -6 24 -13 53 -15 28 -3 86 -11 127 -16 41 -6 136 -18
210 -26 182 -19 229 -28 341 -64 53 -17 108 -31 123 -31 17 0 26 -5 26 -15 0
-15 47 -64 62 -65 4 0 5 8 1 18 -5 14 -3 13 10 -3 9 -11 17 -29 17 -39 0 -11
26 -60 58 -110 71 -109 142 -231 159 -269 11 -25 16 -27 56 -23 30 2 60 15 95
41 55 39 64 50 34 41 -26 -9 -102 27 -137 64 l-30 32 23 15 c23 16 29 42 12
59 -8 8 -8 19 0 38 9 25 8 27 -11 21 l-22 -7 21 30 c21 28 21 31 5 71 -9 22
-20 41 -25 41 -4 0 -8 7 -8 15 0 8 -8 24 -17 36 -43 51 -39 50 -111 23 -89
-34 -87 -34 -90 4 -2 24 2 38 15 48 17 13 17 13 -2 14 -256 13 -448 28 -453
37 -4 7 -6 32 -4 57 4 46 4 46 41 46 54 0 81 10 81 30 0 29 -11 50 -25 50 -7
0 -16 6 -18 13 -4 9 -6 9 -6 0 -2 -23 -21 -14 -22 10 0 15 -2 17 -6 7 -6 -15
-23 -30 -34 -30 -3 0 -9 23 -12 51 -4 28 -12 58 -19 66 -10 12 -9 17 4 27 16
12 16 14 1 29 -23 23 -10 49 22 41 38 -9 31 14 -7 25 l-33 9 33 1 c27 1 32 5
32 25 0 19 -7 25 -32 30 l-33 6 30 26 c25 21 27 28 18 44 -10 15 -9 19 12 24
13 3 31 13 39 22 18 18 11 38 -10 30 -23 -9 -16 24 9 45 l22 19 -22 6 c-14 4
-23 14 -23 25 0 11 -7 19 -15 19 -8 0 -15 4 -15 10 0 5 -9 18 -21 29 -31 28
-23 72 16 84 17 5 32 12 35 14 9 8 -26 23 -57 23 -17 0 -34 4 -37 8 -3 4 8 46
25 92 16 46 29 85 29 86 0 5 86 -10 90 -16 7 -10 47 -30 59 -30 24 0 9 21 -19
27 -22 4 -28 9 -20 18 13 16 2 25 -31 25 -38 0 -59 9 -59 26 0 8 11 15 28 15
23 2 24 2 5 6 -13 2 -23 5 -23 6 0 1 11 35 24 76 20 62 25 71 33 55 18 -35 24
-86 11 -102 -10 -11 -9 -17 5 -27 14 -10 15 -14 5 -18 -7 -3 -2 -6 11 -6 20
-1 22 3 17 22 -16 57 -36 161 -36 190 0 30 40 163 82 269 10 26 18 56 18 67 0
11 4 22 9 26 11 6 12 1 37 -104 10 -41 20 -69 22 -63 2 7 -3 43 -12 80 -9 37
-18 76 -20 87 -1 11 -6 28 -10 37 -10 22 11 85 32 98 9 5 14 10 9 10 -7 0 20
60 32 70 9 8 51 88 51 98 0 5 -10 12 -22 15 -16 5 -19 9 -11 19 6 7 23 51 38
98 15 47 33 91 39 98 18 19 184 21 196 2 8 -13 10 -12 10 3 0 9 6 17 13 17 20
0 36 -21 30 -39 -5 -13 -3 -14 8 -3 7 6 21 12 31 12 10 0 18 -6 18 -12 0 -7 5
-5 11 5 7 12 17 16 30 12 14 -5 19 -1 20 12 3 38 4 44 14 51 6 4 11 15 11 25
2 16 -10 21 -43 20 -7 -1 -10 3 -7 9 3 5 15 8 27 6 23 -3 23 -2 12 50 -4 20
-3 32 4 32 10 0 22 -46 25 -98 1 -15 7 -36 14 -47 11 -17 12 -15 8 22 -6 45 3
53 64 59 14 1 28 2 33 3 4 1 7 6 7 12 0 8 -15 9 -46 4 l-45 -6 3 38 3 38 125
7 c132 8 150 11 150 27 0 7 -50 8 -141 4 l-142 -6 7 54 c4 30 8 70 7 89 0 61
8 63 154 56 149 -8 313 -37 358 -63 30 -18 44 -48 26 -59 -5 -3 -9 -10 -9 -16
0 -6 9 -3 20 7 13 12 20 29 18 44 -7 58 -161 100 -403 110 l-160 6 -6 80 c-8
95 -48 210 -85 242 -14 12 -23 27 -19 32 8 14 -14 53 -26 46 -5 -4 -7 -22 -3
-41 4 -20 2 -34 -4 -34 -15 0 -30 -73 -20 -99 5 -13 6 -32 3 -42 -10 -30 8
-22 28 13 10 18 21 27 27 22 12 -13 0 -64 -14 -58 -8 3 -10 -7 -8 -33 3 -31
-1 -43 -22 -62 -25 -24 -26 -24 -26 -3 0 11 -4 23 -9 26 -5 4 -8 39 -6 80 3
58 0 76 -11 80 -10 4 -13 17 -11 41 2 19 6 38 9 41 4 3 4 28 1 55 -3 30 -1 49
5 49 6 0 12 -9 14 -21 3 -18 5 -19 23 -6 16 13 17 17 6 31 -9 11 -22 14 -38 9
-19 -4 -24 -2 -21 8 3 8 11 13 18 11 12 -3 -23 53 -40 63 -6 4 -10 15 -10 26
0 11 -7 19 -16 19 -8 0 -37 7 -64 16 -27 9 -55 14 -62 12 -7 -3 -18 2 -25 11
-7 9 -12 11 -13 4 0 -6 7 -18 15 -27 18 -18 19 -38 3 -54 -9 -9 -9 -15 0 -24
9 -9 12 -7 12 9 0 21 22 37 34 26 3 -4 6 -17 6 -29 0 -13 5 -26 11 -29 6 -4 8
-14 5 -22 -11 -28 6 -34 29 -9 13 14 25 31 28 38 3 8 9 1 16 -16 9 -22 9 -54
0 -130 -6 -56 -8 -128 -5 -161 6 -55 5 -58 -9 -41 -8 11 -15 26 -15 33 0 7 -8
17 -19 22 -14 8 -18 20 -15 51 1 22 -2 40 -7 40 -6 0 -7 15 -3 35 4 21 2 35
-4 35 -5 0 -13 -24 -16 -53 -11 -82 -33 -105 -38 -39 -2 23 -6 31 -16 27 -7
-3 -17 -5 -22 -5 -4 0 -6 -15 -5 -32 2 -18 3 -39 4 -46 1 -7 4 -11 9 -8 4 2 6
-13 4 -35 -5 -46 13 -76 34 -58 20 16 17 4 -3 -16 -15 -16 -15 -17 8 -13 13 2
23 9 22 15 -2 12 25 39 32 32 6 -6 17 -61 17 -81 -1 -25 5 -22 21 9 l14 26 18
-46 c18 -49 15 -67 -15 -67 -11 0 -22 11 -28 28 l-9 27 -12 -37 c-7 -21 -16
-38 -19 -38 -4 0 -17 -3 -29 -6 -15 -4 -22 -1 -26 13 -4 15 -5 14 -6 -4 -1
-13 -13 -29 -31 -40 -29 -17 -35 -27 -42 -77 -3 -22 -55 -43 -69 -29 -6 6 -4
27 6 57 18 52 16 60 -8 50 -10 -3 -18 -23 -22 -52 -9 -67 -11 -70 -42 -74 -26
-3 -28 -6 -33 -61 -3 -31 -9 -57 -15 -56 -20 2 -33 20 -39 54 -7 36 -46 75
-76 75 -16 0 -40 38 -40 63 0 7 -5 18 -12 25 -6 6 -13 36 -15 67 -3 42 0 53
10 49 9 -3 13 2 11 18 -1 13 -3 27 -3 31 -1 5 -5 5 -11 2 -12 -7 -13 25 -2 41
4 6 15 14 26 17 13 5 17 3 13 -7 -8 -20 3 -28 20 -15 15 13 18 49 4 49 -12 0
-7 98 6 111 6 6 14 0 23 -16 7 -14 17 -25 22 -25 5 0 6 -4 3 -10 -3 -5 -2 -10
3 -10 16 0 22 13 11 27 -9 10 -8 13 4 13 8 0 18 -6 20 -12 3 -7 6 1 6 17 1 23
-2 26 -9 15 -8 -13 -12 -12 -27 4 -13 13 -14 17 -3 12 9 -5 9 -2 -2 7 -24 19
-12 27 23 15 22 -7 29 -16 30 -36 0 -27 0 -27 10 -4 5 13 13 20 19 17 5 -3 10
-2 10 4 0 5 -4 13 -10 16 -5 3 -10 16 -10 29 0 12 -5 27 -11 33 -6 6 -9 19 -6
29 4 20 7 17 22 -32 3 -9 7 -15 10 -13 10 10 31 139 22 139 -5 0 -11 -9 -14
-20 -3 -11 -9 -20 -14 -20 -12 0 -12 2 6 37 8 16 16 39 18 50 1 12 8 27 14 35
7 7 13 25 15 38 5 34 18 52 32 47 7 -3 13 1 13 9 0 8 -4 14 -9 14 -4 0 -20 14
-35 30 -27 30 -43 38 -43 20z m-180 -504 c0 -40 -15 -55 -28 -29 -11 20 2 63
18 63 5 0 10 -15 10 -34z m603 4 c3 -11 1 -20 -4 -20 -5 0 -9 9 -9 20 0 11 2
20 4 20 2 0 6 -9 9 -20z m-850 -50 c3 -11 9 -20 14 -19 23 4 36 -2 26 -12 -5
-5 -22 -7 -37 -3 -19 4 -26 13 -26 30 0 29 16 32 23 4z m85 -5 c-3 -27 -10
-25 -15 5 -2 11 2 20 7 20 5 0 9 -11 8 -25z m762 -7 c0 -16 -3 -19 -11 -11 -6
6 -8 16 -5 22 11 17 16 13 16 -11z m151 -5 c-12 -20 -14 -14 -5 12 4 9 9 14
11 11 3 -2 0 -13 -6 -23z m-304 -9 c-3 -3 -12 -4 -19 -1 -8 3 -5 6 6 6 11 1
17 -2 13 -5z m304 -24 c14 0 11 -17 -7 -35 -22 -22 -42 -4 -36 34 4 27 6 28
19 16 8 -8 19 -15 24 -15z m-798 -5 c-3 -9 -8 -14 -10 -11 -3 3 -2 9 2 15 9
16 15 13 8 -4z m722 -71 c-8 -20 -15 -38 -15 -40 0 -2 -7 -4 -16 -4 -15 0 -15
2 0 23 9 12 19 30 23 40 3 9 9 17 14 17 5 0 2 -16 -6 -36z m-1055 -34 c0 -5
-5 -10 -11 -10 -5 0 -7 5 -4 10 3 6 8 10 11 10 2 0 4 -4 4 -10z m40 -32 c0
-19 -2 -20 -10 -8 -13 19 -13 30 0 30 6 0 10 -10 10 -22z m190 -28 c13 -8 13
-10 -2 -10 -9 0 -20 5 -23 10 -8 13 5 13 25 0z m887 -4 c-3 -8 -1 -16 5 -18 8
-3 7 -11 -2 -27 -7 -14 -10 -40 -7 -62 6 -44 -7 -52 -71 -48 -21 2 -43 0 -49
-4 -6 -4 -13 -3 -15 3 -1 5 -24 10 -50 11 -33 2 -48 7 -51 18 -5 20 27 94 36
84 4 -3 7 3 7 15 0 15 6 22 20 22 11 0 19 -3 19 -7 -1 -5 0 -17 1 -28 2 -14 4
-11 9 10 7 33 29 42 110 44 34 1 42 -2 38 -13z m-333 -61 c-7 -16 -24 -21 -24
-6 0 8 7 13 27 20 1 1 0 -6 -3 -14z m66 -22 c8 -16 16 -31 18 -35 5 -11 -50
-10 -67 1 -11 7 -10 13 5 35 24 32 28 32 44 -1z m286 -8 c-1 -29 -16 -35 -16
-7 0 16 8 32 16 32 1 0 1 -11 0 -25z m-203 -97 c18 -1 41 -2 52 -3 11 -1 31
-3 44 -4 23 -1 24 -3 18 -55 -5 -47 -31 -103 -58 -126 -3 -3 -8 -11 -10 -18
-6 -20 -35 7 -43 40 -6 26 -5 27 41 30 36 2 49 7 51 21 3 15 -2 17 -51 11
l-55 -6 -11 48 c-14 64 -19 92 -14 77 3 -7 19 -14 36 -15z m-110 -8 c9 0 17 5
17 10 0 14 19 12 34 -2 10 -11 36 -102 36 -129 0 -5 -10 1 -22 14 -13 12 -22
24 -21 27 0 3 -5 11 -13 18 -17 15 -17 16 -1 -28 20 -57 35 -77 45 -62 7 11
10 10 16 -3 8 -21 8 -55 0 -55 -14 0 -85 80 -79 90 3 5 1 18 -5 27 -9 15 -10
14 -5 -7 l6 -25 -17 23 c-13 18 -19 20 -28 10 -6 -8 -10 -11 -9 -9 1 2 -9 23
-23 47 -23 39 -24 45 -9 50 9 4 14 12 11 19 -4 10 2 10 22 -1 15 -8 35 -14 45
-14z m-464 -124 c7 -8 24 -17 39 -21 105 -25 102 -23 102 -64 0 -28 5 -40 19
-47 18 -8 18 -12 6 -49 -7 -22 -30 -95 -51 -162 -29 -93 -43 -123 -56 -123
-38 0 -120 25 -127 39 -5 9 -21 73 -36 143 -21 93 -32 125 -42 121 -17 -6 -16
-2 1 32 8 15 12 35 10 44 -3 9 4 0 16 -19 12 -19 19 -27 16 -17 -3 10 -6 27
-6 38 0 10 -7 19 -15 19 -16 0 -20 27 -7 46 4 6 27 15 52 21 63 15 66 15 79
-1z m696 -66 c8 0 17 -5 20 -10 4 -7 -3 -8 -20 -4 -24 6 -26 4 -21 -14 6 -17
3 -19 -12 -15 -19 5 -19 6 -3 46 13 34 17 38 19 20 2 -13 10 -23 17 -23z
m-811 -242 c14 -61 24 -113 22 -116 -6 -6 -128 18 -138 27 -4 4 4 42 18 86 14
44 27 87 29 95 2 8 4 15 4 15 1 1 9 1 19 2 16 1 23 -16 46 -109z m416 -52 c0
-8 -4 -18 -10 -21 -5 -3 -10 3 -10 14 0 12 5 21 10 21 6 0 10 -6 10 -14z
m-133 -118 c-3 -8 -6 -5 -6 6 -1 11 2 17 5 13 3 -3 4 -12 1 -19z m-403 -15 c6
-24 29 -127 71 -323 20 -91 40 -172 45 -181 6 -11 0 -39 -16 -85 -15 -40 -23
-78 -19 -91 8 -32 -6 -53 -17 -27 -6 14 -7 11 -3 -9 l6 -29 -53 7 c-29 4 -96
10 -148 13 l-95 7 1 31 c0 36 85 326 93 319 3 -3 6 -11 7 -18 1 -7 14 -66 29
-132 15 -66 28 -133 29 -150 1 -26 6 -30 34 -33 17 -2 32 1 32 6 0 6 -9 8 -19
5 -20 -5 -28 21 -81 277 l-22 105 34 115 c19 63 41 136 49 163 14 48 34 62 43
30z m114 -14 c58 -14 53 -5 87 -156 l16 -72 -30 -88 c-17 -48 -37 -106 -45
-127 l-13 -39 -27 119 c-15 65 -39 171 -52 234 -14 63 -28 124 -31 134 -4 16
-1 18 18 13 13 -4 48 -12 77 -18z m153 -38 c3 -3 -4 -37 -16 -76 -23 -74 -23
-74 -45 15 -6 25 -14 53 -16 63 -5 16 -1 17 33 11 21 -3 41 -9 44 -13z m-554
-391 c-1 -11 -6 -21 -13 -24 -7 -3 -9 5 -6 20 5 29 21 32 19 4z m493 -80 c0
-5 -5 -10 -11 -10 -5 0 -7 5 -4 10 3 6 8 10 11 10 2 0 4 -4 4 -10z m-50 -70
c0 -5 -5 -10 -11 -10 -5 0 -7 5 -4 10 3 6 8 10 11 10 2 0 4 -4 4 -10z m-527
-92 c4 -10 8 -10 15 0 7 11 11 10 16 -4 11 -30 -11 -41 -34 -16 -11 11 -20 24
-20 27 0 10 18 5 23 -7z m408 -125 c-12 -20 -14 -14 -5 12 4 9 9 14 11 11 3
-2 0 -13 -6 -23z m-156 -108 c11 -2 37 -4 58 -4 47 -1 47 -5 2 -145 -38 -118
-40 -129 -24 -106 7 11 9 6 5 -20 -3 -19 -10 -36 -16 -38 -5 -2 -8 -7 -5 -12
7 -11 -38 -57 -52 -53 -7 3 -13 -23 -17 -69 -8 -100 -8 -99 -23 -94 -9 4 -13
-3 -13 -20 0 -14 -4 -34 -10 -44 -8 -15 -18 -82 -20 -139 0 -10 -5 -9 -17 5
-16 17 -31 19 -145 16 -71 -1 -128 1 -128 5 0 4 21 76 46 158 24 83 51 173 59
200 36 124 53 170 63 168 6 -2 23 4 39 13 l28 16 -32 -4 c-21 -3 -30 -1 -25 6
3 6 5 21 3 33 -1 13 1 28 6 35 4 7 8 18 9 25 1 6 8 28 14 49 l12 36 82 -6 c44
-4 90 -8 101 -11z m169 -116 c-7 -11 -44 -12 -44 -1 0 4 5 13 12 20 13 13 42
-4 32 -19z m66 -119 c0 -5 -7 -10 -16 -10 -8 0 -12 5 -9 10 3 6 10 10 16 10 5
0 9 -4 9 -10z m-180 -89 c0 -5 9 -13 21 -16 11 -4 18 -9 15 -13 -8 -7 -56 19
-56 30 0 4 5 8 10 8 6 0 10 -4 10 -9z m153 -3 c8 -23 -2 -171 -13 -182 -14
-14 -12 -45 4 -62 15 -14 10 -58 -5 -48 -5 3 -8 -25 -7 -63 1 -67 1 -67 7 -18
3 28 9 46 13 40 6 -10 3 -61 -7 -103 -5 -20 -8 -22 -20 -12 -10 8 -19 9 -27 3
-7 -5 -26 -9 -43 -8 -80 5 -81 5 -65 15 13 8 13 10 -2 10 -10 0 -21 -13 -28
-35 -6 -19 -17 -34 -23 -32 -6 1 -18 -17 -26 -40 -9 -24 -18 -43 -21 -43 -3 0
-5 20 -5 44 0 24 3 42 6 40 7 -4 27 39 34 74 5 30 15 43 25 37 4 -3 6 5 4 17
-2 13 -2 17 2 11 6 -14 33 -18 35 -5 3 31 10 54 28 102 12 30 38 103 57 163
28 82 41 107 54 107 10 0 20 -6 23 -12z m-167 -294 c-4 -9 -9 -15 -11 -12 -3
3 -3 13 1 22 4 9 9 15 11 12 3 -3 3 -13 -1 -22z m-1333 -61 c-7 -2 -21 -2 -30
0 -10 3 -4 5 12 5 17 0 24 -2 18 -5z m-674 -74 c-21 -12 -24 -2 -8 28 14 26
14 26 17 3 2 -12 -2 -26 -9 -31z m1335 -2 c8 -13 6 -21 -7 -34 -15 -15 -17
-16 -12 -2 3 9 -1 23 -9 32 -8 8 -12 17 -9 21 10 9 25 2 37 -17z m-1021 6 c-7
-2 -21 -2 -30 0 -10 3 -4 5 12 5 17 0 24 -2 18 -5z m-346 -9 c-3 -3 -12 -4
-19 -1 -8 3 -5 6 6 6 11 1 17 -2 13 -5z m1913 -60 c0 -9 -5 -12 -12 -8 -6 4
-40 6 -75 5 -41 -1 -63 2 -59 8 4 5 21 8 39 5 17 -3 46 -1 62 4 34 10 45 7 45
-14z m-115 -64 c3 -5 1 -10 -4 -10 -6 0 -11 5 -11 10 0 6 2 10 4 10 3 0 8 -4
11 -10z m955 -171 c0 -17 -7 -37 -15 -45 -13 -14 -15 -10 -15 30 0 34 4 46 15
46 10 0 15 -10 15 -31z"/>
<path d="M6527 6458 c2 -5 -3 -8 -11 -8 -19 0 -21 -17 -4 -22 26 -9 68 5 68
22 0 13 -8 17 -29 16 -16 -1 -27 -4 -24 -8z"/>
<path d="M5331 4660 c-17 -10 -7 -40 14 -40 8 0 15 9 15 19 0 24 -12 32 -29
21z"/>
<path d="M5404 4614 c-17 -25 -16 -26 9 -52 l27 -27 0 27 c0 15 4 38 10 52 8
22 7 26 -10 26 -11 0 -27 -12 -36 -26z"/>
<path d="M5484 4580 c-9 -41 -8 -50 3 -50 8 0 11 4 8 10 -3 5 0 7 9 4 22 -9
30 33 12 61 -9 14 -18 25 -19 25 -2 0 -8 -22 -13 -50z"/>
<path d="M5296 4364 c-7 -37 5 -64 29 -64 25 0 35 66 13 88 -21 21 -36 13 -42
-24z m34 -14 c0 -16 -4 -30 -10 -30 -11 0 -14 43 -3 53 11 12 13 8 13 -23z"/>
<path d="M5367 4393 c-11 -10 -8 -93 3 -93 6 0 10 6 10 14 0 8 7 16 15 20 18
7 20 37 3 54 -14 14 -22 15 -31 5z m20 -35 c-3 -8 -6 -5 -6 6 -1 11 2 17 5 13
3 -3 4 -12 1 -19z"/>
<path d="M5420 4346 c0 -48 11 -62 36 -48 15 8 14 10 -2 16 -16 6 -16 8 -4 17
13 8 13 10 0 20 -11 8 -12 12 -2 16 19 8 14 23 -8 23 -17 0 -20 -7 -20 -44z"/>
<path d="M5282 4268 c-19 -19 -14 -30 10 -22 l21 6 -22 -38 c-22 -36 -22 -39
-4 -51 15 -12 20 -11 30 4 10 12 10 19 2 24 -8 5 -7 13 4 29 27 38 -9 80 -41
48z"/>
<path d="M5363 4244 c-18 -36 -18 -37 5 -52 12 -8 22 -21 22 -28 0 -8 4 -14 9
-14 23 0 17 120 -6 127 -7 3 -21 -12 -30 -33z m23 -31 c-10 -10 -19 5 -10 18
6 11 8 11 12 0 2 -7 1 -15 -2 -18z"/>
<path d="M6160 7230 c0 -5 5 -10 11 -10 5 0 7 5 4 10 -3 6 -8 10 -11 10 -2 0
-4 -4 -4 -10z"/>
<path d="M6186 7208 c-9 -34 -8 -37 16 -30 16 4 19 2 13 -8 -5 -8 -4 -11 3 -6
13 8 12 48 -3 58 -17 12 -22 9 -29 -14z"/>
<path d="M5820 7193 c0 -34 17 -46 18 -14 0 17 -4 31 -9 31 -5 0 -9 -8 -9 -17z"/>
<path d="M6241 7188 c-1 -15 4 -30 9 -33 12 -7 12 12 0 40 -8 18 -9 17 -9 -7z"/>
<path d="M5740 7115 c32 -18 37 -18 44 0 4 12 -3 15 -32 15 l-37 -1 25 -14z"/>
<path d="M6186 7074 c-10 -26 -7 -74 5 -74 7 0 10 -14 7 -35 -4 -36 7 -48 16
-17 3 9 15 23 26 30 18 11 21 10 28 -8 8 -21 8 -21 22 4 12 23 11 28 -4 45
-10 11 -16 24 -13 28 3 5 2 15 -3 22 -5 9 -10 0 -15 -28 -4 -25 -12 -40 -18
-38 -7 2 -11 13 -9 23 2 18 2 18 -11 2 -19 -23 -28 -12 -16 19 5 13 9 29 9 34
0 15 -17 10 -24 -7z"/>
<path d="M5772 7058 c-18 -18 -15 -51 3 -44 12 4 15 -3 15 -34 0 -22 5 -40 10
-40 17 0 11 59 -9 79 -13 13 -16 23 -9 35 11 19 7 21 -10 4z"/>
<path d="M5825 7050 c3 -5 8 -10 11 -10 2 0 4 5 4 10 0 6 -5 10 -11 10 -5 0
-7 -4 -4 -10z"/>
<path d="M5869 7035 c-7 -13 -5 -32 5 -68 7 -22 11 -25 23 -16 10 9 11 14 2
19 -6 4 -14 23 -18 41 -4 19 -9 29 -12 24z"/>
<path d="M6341 6963 c0 -5 4 -17 9 -28 8 -17 8 -16 7 8 -1 15 -5 27 -9 27 -4
0 -8 -3 -7 -7z"/>
<path d="M6164 6930 c0 -11 4 -20 8 -20 4 0 8 9 8 20 0 11 -4 20 -8 20 -4 0
-8 -9 -8 -20z"/>
<path d="M6109 6935 c-4 -5 -10 -30 -13 -55 l-7 -45 16 28 c15 26 18 95 4 72z"/>
<path d="M6272 6914 c2 -11 -3 -28 -11 -37 -12 -15 -11 -17 12 -17 34 0 43 28
17 54 l-22 21 4 -21z"/>
<path d="M6395 6864 c3 -52 10 -73 19 -63 7 8 -6 119 -14 119 -5 0 -7 -25 -5
-56z"/>
<path d="M5890 6889 c0 -5 5 -7 10 -4 6 3 10 8 10 11 0 2 -4 4 -10 4 -5 0 -10
-5 -10 -11z"/>
<path d="M6500 6825 c0 -8 2 -15 4 -15 2 0 6 7 10 15 3 8 1 15 -4 15 -6 0 -10
-7 -10 -15z"/>
<path d="M5520 6800 c0 -5 5 -10 11 -10 6 0 8 -14 5 -36 -8 -45 -24 -76 -37
-69 -5 4 -9 -8 -9 -25 0 -28 2 -30 20 -20 16 9 22 8 26 -4 8 -22 30 1 32 33 0
14 2 43 4 63 1 25 -4 44 -17 58 -20 22 -35 26 -35 10z m30 -119 c0 -12 -20
-25 -27 -18 -7 7 6 27 18 27 5 0 9 -4 9 -9z"/>
<path d="M6170 6799 c0 -5 5 -7 10 -4 6 3 10 8 10 11 0 2 -4 4 -10 4 -5 0 -10
-5 -10 -11z"/>
<path d="M6082 6705 c-6 -8 -18 -12 -26 -9 -8 3 -16 -4 -19 -16 -3 -12 -10
-19 -16 -16 -14 9 -71 -77 -71 -106 1 -21 2 -20 14 7 7 18 15 25 19 18 4 -6 3
-15 -3 -18 -6 -4 -8 -15 -5 -26 4 -11 2 -19 -5 -19 -5 0 -9 -10 -7 -22 2 -13
2 -17 0 -10 -3 6 -8 12 -13 12 -16 0 -18 -28 -4 -49 8 -11 14 -26 13 -33 -3
-26 1 -39 11 -33 9 5 15 -10 8 -18 -2 -1 7 -13 19 -26 27 -29 56 -22 48 12 -7
28 11 81 25 72 5 -3 10 -1 10 4 0 6 -3 11 -7 11 -5 0 -9 41 -9 90 -1 78 1 90
15 88 9 -1 22 1 29 5 14 9 17 57 3 57 -5 0 -7 9 -4 20 6 23 -6 26 -25 5z m-95
-287 c-3 -8 -6 -5 -6 6 -1 11 2 17 5 13 3 -3 4 -12 1 -19z m33 -12 c0 -2 -7
-7 -16 -10 -8 -3 -12 -2 -9 4 6 10 25 14 25 6z"/>
<path d="M6193 6678 c-2 -18 0 -20 7 -8 12 18 13 30 2 30 -4 0 -9 -10 -9 -22z"/>
<path d="M6160 6555 c0 -8 7 -15 15 -15 9 0 12 6 9 15 -4 8 -10 15 -15 15 -5
0 -9 -7 -9 -15z"/>
<path d="M7150 6372 c-25 -8 -51 -18 -59 -22 -19 -9 -26 -30 -10 -30 26 0 128
43 133 56 6 17 -5 16 -64 -4z"/>
<path d="M7022 6343 c-23 -3 -36 -12 -47 -33 -8 -16 -15 -31 -15 -34 0 -6 52
15 60 25 3 3 13 8 23 12 9 3 17 13 17 22 0 8 -1 14 -2 13 -2 0 -18 -3 -36 -5z"/>
<path d="M6902 6253 c-4 -10 -16 -19 -27 -21 -55 -9 -76 -15 -82 -25 -9 -15
74 0 108 20 16 9 31 23 33 30 8 20 -24 15 -32 -4z"/>
<path d="M6871 6173 c0 -5 4 -17 9 -28 8 -18 9 -17 9 8 1 15 -3 27 -9 27 -5 0
-10 -3 -9 -7z"/>
<path d="M5423 6123 c9 -2 25 -2 35 0 9 3 1 5 -18 5 -19 0 -27 -2 -17 -5z"/>
<path d="M6961 6103 c-7 -8 -11 -16 -8 -19 2 -2 10 2 17 11 17 20 9 27 -9 8z"/>
<path d="M6641 6095 c-1 -24 14 -50 22 -38 3 4 -1 19 -9 33 -12 22 -13 23 -13
5z"/>
<path d="M6811 6082 c-6 -12 -20 -24 -31 -27 -11 -3 -20 -10 -20 -15 0 -12 52
-60 65 -60 5 0 -4 12 -22 26 l-32 25 32 29 c18 15 29 31 25 35 -3 4 -11 -2
-17 -13z"/>
<path d="M6901 6084 c0 -11 3 -14 6 -6 3 7 2 16 -1 19 -3 4 -6 -2 -5 -13z"/>
<path d="M6575 6030 c3 -5 10 -10 16 -10 5 0 9 5 9 10 0 6 -7 10 -16 10 -8 0
-12 -4 -9 -10z"/>
<path d="M6642 6020 c7 -11 16 -20 20 -20 5 0 8 9 8 20 0 13 -7 20 -20 20 -18
0 -19 -2 -8 -20z"/>
<path d="M6480 6000 c0 -11 2 -20 4 -20 2 0 6 9 9 20 3 11 1 20 -4 20 -5 0 -9
-9 -9 -20z"/>
<path d="M5552 5970 c0 -14 2 -38 5 -53 5 -27 6 -28 24 -11 24 21 25 53 2 61
-10 4 -21 11 -25 17 -4 6 -7 0 -6 -14z"/>
<path d="M6515 5950 c3 -5 8 -10 11 -10 2 0 4 5 4 10 0 6 -5 10 -11 10 -5 0
-7 -4 -4 -10z"/>
<path d="M5390 5934 c0 -26 44 -237 47 -227 3 7 -5 61 -17 120 -20 97 -30 133
-30 107z"/>
<path d="M6876 5918 c3 -5 10 -6 15 -3 13 9 11 12 -6 12 -8 0 -12 -4 -9 -9z"/>
<path d="M5485 5780 c-3 -5 -1 -10 4 -10 6 0 11 5 11 10 0 6 -2 10 -4 10 -3 0
-8 -4 -11 -10z"/>
<path d="M5487 5613 c-4 -3 -7 -11 -7 -17 0 -6 5 -5 12 2 6 6 9 14 7 17 -3 3
-9 2 -12 -2z"/>
<path d="M1197 5460 c-33 -26 -67 -97 -83 -174 -19 -89 -18 -491 1 -574 29
-123 72 -174 148 -176 35 -1 44 5 78 43 22 24 41 42 43 40 2 -2 12 -22 22 -44
l19 -40 3 212 c2 191 4 212 20 216 9 3 -28 5 -83 4 -55 0 -90 -2 -77 -4 22 -4
22 -5 22 -189 0 -109 -4 -193 -10 -205 -14 -25 -56 -25 -70 1 -7 14 -10 155
-8 444 3 458 3 460 57 454 52 -6 93 -115 108 -283 11 -134 23 -79 23 105 0
102 -4 180 -9 180 -5 0 -18 -12 -29 -27 l-20 -27 -27 32 c-21 26 -34 32 -65
32 -22 0 -48 -8 -63 -20z"/>
<path d="M1577 5462 c-63 -38 -92 -155 -64 -253 9 -30 50 -122 90 -204 41 -83
84 -178 95 -213 43 -123 21 -232 -47 -232 -54 0 -103 85 -122 211 -25 168 -27
166 -28 -33 0 -109 2 -198 6 -198 4 0 19 12 34 26 l28 27 30 -26 c46 -39 84
-43 138 -15 33 16 53 35 67 62 50 99 28 217 -83 442 -124 253 -148 348 -99
394 28 26 40 25 76 -4 34 -29 56 -93 78 -221 9 -49 18 -92 20 -94 2 -2 4 76 4
173 l0 178 -35 -22 -35 -22 -29 21 c-35 25 -86 27 -124 3z"/>
<path d="M2353 5468 c-2 -5 5 -8 16 -8 21 0 21 -2 21 -454 l0 -455 -22 -4
c-13 -2 57 -5 155 -6 l177 -1 -1 193 c-1 149 -3 176 -9 122 -20 -182 -68 -282
-142 -300 l-28 -7 0 231 c0 187 3 231 13 231 36 0 66 -64 77 -165 5 -48 7 5 7
170 0 180 -2 221 -8 163 -4 -42 -15 -91 -24 -107 -13 -27 -42 -51 -59 -51 -3
0 -6 99 -6 220 l0 220 40 0 c35 0 43 -5 60 -32 28 -46 60 -153 69 -235 7 -55
9 -36 10 104 l1 172 -171 3 c-94 2 -173 0 -176 -4z"/>
<path d="M4075 5470 c-55 -3 -90 -7 -77 -8 l22 -2 0 -450 0 -451 -22 -9 c-15
-6 38 -9 155 -9 l177 -1 -1 193 -1 192 -17 -100 c-31 -176 -62 -247 -116 -265
-19 -6 -39 -9 -45 -5 -6 4 -10 161 -10 456 0 442 0 449 20 449 11 0 20 5 20
10 0 6 -1 9 -2 8 -2 -1 -48 -5 -103 -8z"/>
<path d="M388 5463 l22 -4 0 -450 0 -450 -22 -9 c-16 -6 9 -9 82 -9 73 0 98 3
82 9 l-22 9 2 228 3 228 30 -3 c52 -5 55 -18 55 -230 0 -109 4 -201 10 -212
12 -23 70 -43 103 -35 44 11 79 58 83 112 l4 48 -14 -48 c-17 -57 -32 -78 -52
-70 -11 4 -14 34 -14 154 0 104 -4 160 -14 182 -15 38 -66 84 -102 93 -32 8
-30 19 6 34 42 17 87 72 101 122 19 71 7 180 -25 228 -47 71 -72 80 -216 79
-69 -1 -115 -4 -102 -6z m220 -15 c8 -8 12 -66 12 -193 0 -202 -6 -225 -61
-225 l-29 0 0 215 0 215 33 0 c18 0 38 -5 45 -12z"/>
<path d="M858 5463 l22 -4 0 -454 0 -454 -22 -4 c-13 -2 27 -4 87 -5 61 0 99
3 85 7 l-25 7 -3 447 -2 448 22 9 c16 6 -10 9 -82 8 -58 0 -95 -3 -82 -5z"/>
<path d="M1888 5463 l22 -4 0 -450 0 -450 -22 -9 c-16 -6 12 -9 87 -8 61 0 99
3 85 7 l-25 7 -3 207 c-1 114 1 207 5 207 8 0 114 -382 113 -407 0 -6 -10 -14
-22 -16 -13 -2 24 -5 81 -6 87 -1 102 1 87 12 -11 8 -42 108 -97 317 -44 168
-81 309 -82 314 -2 5 -18 -30 -37 -77 -18 -48 -37 -87 -42 -87 -4 0 -8 99 -8
219 l0 220 23 4 c12 2 -25 4 -83 4 -58 0 -95 -2 -82 -4z"/>
<path d="M2160 5457 c20 -10 25 -20 25 -52 0 -22 -4 -51 -8 -65 -4 -14 6 2 21
35 31 64 45 80 77 88 11 2 -16 5 -60 6 -71 1 -77 -1 -55 -12z"/>
<path d="M2740 5275 c0 -123 4 -195 10 -195 6 0 10 18 10 39 0 58 39 249 60
299 13 30 25 42 39 42 21 0 21 -3 21 -454 l0 -455 -32 -4 c-18 -2 23 -4 92 -4
69 0 113 2 98 4 l-28 4 0 455 c0 435 1 454 18 454 31 0 71 -113 91 -260 6 -41
13 -86 15 -100 2 -14 4 64 5 173 l1 197 -200 0 -200 0 0 -195z"/>
<path d="M3188 5463 l22 -4 0 -454 0 -454 -22 -4 c-13 -2 22 -5 77 -6 55 0
117 4 138 10 89 24 141 114 141 239 0 109 -40 187 -113 217 -39 16 -38 19 29
55 89 50 109 258 33 349 -42 50 -77 59 -210 58 -65 -1 -108 -4 -95 -6z m222
-22 c6 -12 10 -95 10 -200 0 -197 -5 -215 -59 -209 l-26 3 -3 200 c-1 110 0
205 2 212 8 21 64 16 76 -6z m0 -440 c6 -12 10 -98 10 -211 0 -191 0 -191 -25
-216 -14 -14 -33 -24 -43 -22 -15 3 -17 24 -20 223 -1 121 0 225 2 232 8 21
64 16 76 -6z"/>
<path d="M4393 5463 c16 -4 17 -34 17 -458 l0 -454 -22 -4 c-13 -2 57 -5 155
-6 l177 -1 0 139 c0 76 3 160 7 186 4 32 3 46 -4 42 -6 -4 -13 -36 -17 -72 -9
-85 -51 -218 -79 -250 -12 -14 -37 -28 -54 -31 l-33 -6 0 455 0 456 23 4 c12
2 -25 4 -83 4 -58 1 -97 -1 -87 -4z"/>
<path d="M5275 5461 c-3 -5 -1 -12 5 -16 5 -3 10 1 10 9 0 18 -6 21 -15 7z"/>
<path d="M3745 5448 c-9 -28 -36 -279 -32 -291 3 -6 6 4 7 23 3 76 19 -8 35
-185 9 -99 18 -195 22 -212 l5 -33 -57 0 -57 0 5 78 c6 76 5 76 -4 17 -5 -33
-16 -105 -23 -160 -11 -78 -19 -103 -35 -116 -12 -10 -21 -20 -21 -23 0 -3 26
-6 58 -6 l57 0 -29 23 c-29 23 -29 25 -22 93 4 38 11 73 15 77 5 5 30 7 56 5
56 -3 61 -12 67 -119 3 -54 1 -63 -17 -70 -12 -4 21 -8 79 -8 82 -1 97 1 83
12 -13 9 -22 58 -42 222 -14 116 -37 302 -50 415 -35 290 -30 270 -66 270 -16
0 -31 -6 -34 -12z"/>
<path d="M5358 5374 c-5 -4 -8 -21 -8 -38 0 -21 3 -27 11 -19 6 6 9 23 7 38
-2 15 -6 23 -10 19z"/>
<path d="M2141 5259 c-12 -29 -20 -54 -18 -56 2 -2 14 20 26 48 12 29 20 54
18 56 -2 2 -14 -20 -26 -48z"/>
<path d="M5132 5190 c0 -14 2 -19 5 -12 2 6 2 18 0 25 -3 6 -5 1 -5 -13z"/>
<path d="M3690 5030 c-7 -61 -10 -113 -8 -116 3 -2 11 45 18 106 6 61 10 114
7 116 -2 3 -10 -45 -17 -106z"/>
<path d="M4998 4700 c-7 -24 -3 -38 8 -28 3 4 4 17 2 30 l-3 23 -7 -25z"/>
<path d="M5097 4714 c-9 -10 2 -24 19 -24 8 0 14 7 14 15 0 15 -21 21 -33 9z"/>
<path d="M5082 4648 c4 -33 34 -35 40 -3 4 21 2 25 -19 25 -20 0 -24 -4 -21
-22z"/>
<path d="M5073 4458 c2 -52 -7 -53 -28 -2 -21 51 -35 42 -37 -23 0 -32 -1 -67
-2 -77 0 -11 5 -21 12 -24 8 -2 12 8 12 33 0 32 2 36 15 25 12 -10 15 -10 15
0 0 8 2 11 5 8 3 -3 -2 -22 -10 -42 -10 -24 -12 -42 -6 -53 7 -14 10 -13 16 6
4 12 4 25 1 28 -2 3 4 22 15 41 21 40 24 63 10 78 -5 5 -11 18 -14 29 -3 11
-5 -1 -4 -27z"/>
<path d="M4917 4398 c4 -7 6 -24 4 -37 -2 -14 2 -22 9 -19 6 2 11 7 11 11 -1
4 -1 18 -1 32 0 16 -6 25 -16 25 -10 0 -12 -5 -7 -12z"/>
<path d="M5022 4280 c-7 -12 -8 -20 -2 -20 5 0 10 5 10 11 0 5 4 7 10 4 6 -3
7 1 4 9 -8 20 -7 20 -22 -4z"/>
<path d="M4915 4280 c3 -5 -1 -10 -9 -10 -9 0 -20 -16 -26 -37 -14 -48 -1 -89
35 -105 40 -18 60 9 60 78 0 44 -4 59 -19 70 -23 16 -50 19 -41 4z m29 -43 c6
-27 -6 -82 -20 -82 -11 0 -17 50 -10 81 8 30 22 31 30 1z"/>
<path d="M4170 4240 c-20 -20 -29 -77 -10 -65 6 3 10 19 10 36 0 19 5 29 14
29 8 0 18 5 21 10 11 18 -14 11 -35 -10z"/>
<path d="M4817 4243 c-4 -3 -7 -19 -7 -34 0 -16 -9 -37 -22 -48 -20 -19 -20
-21 -3 -27 24 -9 47 6 58 40 14 43 -4 92 -26 69z"/>
<path d="M4687 4223 c-13 -13 -7 -21 13 -16 11 3 20 9 20 14 0 10 -24 12 -33
2z"/>
<path d="M3457 4203 c-4 -3 -7 -15 -7 -27 0 -11 -9 -30 -21 -42 -17 -18 -28
-21 -60 -17 -44 6 -83 -14 -56 -28 15 -9 57 1 108 23 21 9 32 24 40 52 10 38
9 52 -4 39z"/>
<path d="M3942 4185 c0 -16 2 -22 5 -12 2 9 2 23 0 30 -3 6 -5 -1 -5 -18z"/>
<path d="M4366 4202 c-7 -11 31 -48 41 -38 4 3 -2 16 -14 27 -11 12 -23 17
-27 11z"/>
<path d="M3890 4182 c0 -5 7 -13 16 -16 10 -4 14 -1 12 6 -5 15 -28 23 -28 10z"/>
<path d="M3680 4110 c0 -5 5 -10 10 -10 6 0 10 5 10 10 0 6 -4 10 -10 10 -5 0
-10 -4 -10 -10z"/>
<path d="M3230 4096 c0 -8 -12 -17 -27 -19 -16 -2 -1 -4 32 -5 44 0 53 2 35 8
-14 4 -18 9 -10 9 13 1 13 2 0 11 -21 14 -30 12 -30 -4z"/>
<path d="M3500 4080 c-13 -8 -13 -10 2 -10 9 0 20 5 23 10 8 13 -5 13 -25 0z"/>
<path d="M3084 4021 c-26 -35 -49 -54 -74 -62 -19 -6 -54 -19 -77 -30 -24 -10
-45 -19 -48 -19 -4 0 -23 -11 -43 -25 -42 -29 -37 -32 16 -8 20 9 40 15 44 15
4 -1 30 7 58 18 59 23 70 24 70 7 0 -7 9 -13 21 -14 20 -2 20 -1 5 16 -15 16
-15 19 5 37 26 23 73 103 66 110 -3 3 -22 -17 -43 -45z"/>
<path d="M2601 3959 c-1 -58 14 -77 64 -80 54 -3 65 -1 65 12 0 5 -3 8 -7 6
-5 -3 -28 -2 -53 2 -44 6 -45 7 -56 56 l-12 50 -1 -46z"/>
<path d="M2728 3988 c-2 -7 -1 -26 3 -43 5 -21 7 -24 8 -9 0 11 4 24 8 28 4 3
8 13 9 21 3 18 -22 20 -28 3z"/>
<path d="M2539 3974 c-9 -8 -36 -20 -60 -25 -24 -6 -46 -14 -49 -18 -3 -5 -34
-5 -70 0 -36 4 -67 6 -69 3 -8 -8 56 -25 103 -27 28 -1 54 -6 57 -11 10 -13
76 31 82 55 3 12 10 18 16 14 6 -3 11 1 11 9 0 20 -2 20 -21 0z"/>
<path d="M1990 3935 c0 -5 5 -17 10 -25 5 -8 10 -10 10 -5 0 6 -5 17 -10 25
-5 8 -10 11 -10 5z"/>
<path d="M5986 3915 c4 -8 8 -15 10 -15 2 0 4 7 4 15 0 8 -4 15 -10 15 -5 0
-7 -7 -4 -15z"/>
<path d="M2100 3902 c0 -5 7 -16 16 -23 14 -12 16 -11 13 5 -4 20 -29 35 -29
18z"/>
<path d="M3986 3901 c-3 -5 1 -12 10 -15 22 -8 25 -4 9 11 -8 7 -16 9 -19 4z"/>
<path d="M3938 3883 c7 -3 16 -2 19 1 4 3 -2 6 -13 5 -11 0 -14 -3 -6 -6z"/>
<path d="M4053 3875 c0 -8 4 -12 9 -9 5 3 6 10 3 15 -9 13 -12 11 -12 -6z"/>
<path d="M5900 3865 c0 -8 4 -15 10 -15 5 0 7 7 4 15 -4 8 -8 15 -10 15 -2 0
-4 -7 -4 -15z"/>
<path d="M5961 3854 c0 -11 3 -14 6 -6 3 7 2 16 -1 19 -3 4 -6 -2 -5 -13z"/>
<path d="M1962 3808 c-19 -25 -70 -134 -152 -326 -70 -165 -87 -218 -121 -369
-22 -98 -38 -184 -36 -193 1 -8 13 30 26 85 53 228 142 482 242 693 56 118 63
136 41 110z"/>
<path d="M5502 3743 c9 -10 25 -37 37 -60 l21 -42 -307 -1 c-366 0 -438 -7
-470 -45 -31 -36 -30 -58 22 -430 24 -176 49 -354 55 -395 13 -91 48 -169 89
-193 37 -21 81 -22 416 -1 173 11 433 17 778 18 506 1 519 1 534 21 20 27 13
83 -22 170 -96 242 -284 603 -358 690 -21 25 -52 52 -67 60 -44 23 -238 54
-452 72 l-196 17 -17 36 c-23 49 -58 100 -69 100 -5 0 -2 -8 6 -17z"/>
<path d="M1575 3714 c-11 -2 -43 -9 -72 -15 -109 -22 -265 -147 -655 -531
-175 -171 -188 -186 -188 -220 0 -20 6 -38 12 -40 7 -3 45 -1 83 3 39 4 98 8
133 8 58 1 62 0 53 -17 -14 -26 -2 -62 19 -62 10 0 25 -3 33 -6 23 -9 60 33
54 62 -4 23 -2 24 56 24 80 0 329 -19 392 -30 62 -10 65 -7 95 119 32 136 129
425 189 565 29 66 49 126 47 133 -4 10 -34 13 -118 12 -62 -1 -122 -3 -133 -5z
m158 -204 c-3 -11 -10 -23 -16 -27 -5 -3 -8 -2 -5 3 3 5 8 17 11 27 9 24 16
22 10 -3z m-287 -101 c21 -12 31 -25 27 -35 -6 -16 -19 -18 -28 -4 -11 18 -23
11 -18 -10 6 -24 22 -25 49 -5 22 16 38 20 29 5 -13 -20 60 -46 142 -49 26 -2
-1 -31 -33 -37 -31 -6 -323 19 -372 32 l-22 6 25 24 c14 13 31 24 38 24 7 0
35 16 62 35 28 19 54 34 59 35 5 0 24 -9 42 -21z m-563 -370 c14 -10 -1 -29
-18 -22 -16 5 -20 34 -8 47 4 4 9 1 12 -6 2 -7 8 -16 14 -19z"/>
<path d="M1388 3343 c-10 -2 -18 -9 -18 -14 0 -13 13 -11 36 6 19 14 14 17
-18 8z"/>
<path d="M1338 3323 c7 -3 16 -2 19 1 4 3 -2 6 -13 5 -11 0 -14 -3 -6 -6z"/>
<path d="M2032 3708 c-7 -7 -12 -14 -12 -17 0 -4 134 -6 298 -6 271 0 961 -13
1057 -20 40 -3 222 -11 485 -20 74 -3 153 -7 175 -10 22 -3 85 -7 139 -11 105
-6 139 -15 168 -41 10 -9 18 -11 18 -5 0 19 -49 50 -98 61 -92 20 -695 49
-1512 71 -481 14 -703 13 -718 -2z"/>
<path d="M6575 3500 c-3 -5 -2 -10 4 -10 5 0 13 5 16 10 3 6 2 10 -4 10 -5 0
-13 -4 -16 -10z"/>
<path d="M1023 3455 c0 -27 2 -38 4 -22 2 15 2 37 0 50 -2 12 -4 0 -4 -28z"/>
<path d="M904 3381 c0 -11 4 -17 8 -15 4 3 8 12 8 20 0 8 -4 14 -8 14 -4 0 -8
-9 -8 -19z"/>
<path d="M830 3352 c0 -4 -18 -29 -40 -56 -22 -26 -40 -51 -40 -55 0 -3 13 -6
29 -6 16 0 27 3 24 8 -2 4 -11 7 -19 7 -20 0 -17 14 7 36 31 28 62 74 50 74
-6 0 -11 -3 -11 -8z"/>
<path d="M870 3330 c-20 -12 -10 -19 14 -10 11 3 15 9 10 13 -6 3 -16 2 -24
-3z"/>
<path d="M774 3198 l-19 -23 23 19 c21 18 27 26 19 26 -2 0 -12 -10 -23 -22z"/>
<path d="M6660 3173 c-30 -25 -56 -52 -58 -60 -2 -7 -14 -13 -28 -13 -13 0
-24 -3 -24 -6 0 -16 23 -44 35 -44 10 0 15 -10 14 -32 -2 -29 13 -67 104 -268
8 -19 23 -58 32 -86 10 -35 22 -54 35 -57 16 -4 20 -14 20 -45 0 -22 3 -53 6
-68 5 -27 2 -30 -28 -39 l-33 -10 0 -288 0 -288 40 1 c57 3 59 2 44 -16 -9
-11 -25 -15 -50 -12 -20 2 -40 -1 -45 -7 -11 -13 -12 -315 -1 -332 10 -16 69
-17 85 -1 7 7 12 26 12 42 0 58 10 76 41 76 16 0 29 3 30 8 0 4 2 17 3 30 2
13 -1 25 -6 28 -4 3 -8 16 -8 30 0 17 -8 27 -25 34 -30 11 -34 24 -5 15 15 -5
18 -3 14 9 -4 9 0 23 7 32 11 14 10 19 -9 35 l-23 18 21 21 c11 11 30 20 43
20 20 1 21 1 4 11 -18 10 -18 12 -1 30 16 18 16 19 -1 19 -11 0 -15 5 -12 15
4 8 2 17 -3 20 -5 3 -7 12 -3 20 3 10 -1 15 -16 15 -52 0 -51 93 1 115 21 8
27 15 18 20 -9 6 -5 13 16 24 29 16 29 16 -46 19 -90 3 -108 8 -92 24 7 7 46
14 87 18 87 6 104 24 28 28 l-53 3 0 40 0 40 48 -6 c26 -3 57 -8 69 -11 12 -2
24 0 28 5 3 6 -11 13 -32 16 -93 16 -98 19 -94 51 2 16 4 94 4 174 1 150 1
148 -60 333 -4 14 1 17 34 17 65 0 102 49 63 85 -11 10 -17 22 -14 26 3 5 -4
22 -15 38 -26 36 -26 47 -1 61 45 24 3 55 -85 64 -60 5 -60 5 -115 -41z"/>
<path d="M710 3150 c-19 -16 -30 -29 -23 -30 6 0 15 5 18 10 3 6 18 11 33 11
18 1 21 3 9 6 -14 4 -16 8 -6 19 19 23 6 16 -31 -16z"/>
<path d="M6530 3143 c0 -5 5 -15 10 -23 8 -13 10 -13 10 2 0 9 6 19 13 21 6 3
2 6 -10 6 -13 1 -23 -2 -23 -6z"/>
<path d="M633 3057 c-45 -23 -82 -47 -82 -52 -1 -12 -98 -48 -110 -41 -4 3
-22 -17 -40 -44 -18 -27 -38 -49 -44 -47 -7 1 -14 -16 -17 -43 -5 -36 -7 -40
-12 -20 -5 25 -5 25 -7 -2 -1 -21 -6 -28 -21 -28 -14 0 -20 -6 -19 -22 1 -18
2 -19 6 -5 3 11 12 17 25 15 11 -2 24 4 28 12 5 8 22 42 38 75 24 50 37 64 75
84 40 19 52 21 78 12 38 -13 60 -3 34 16 -18 12 -17 13 7 13 33 0 48 20 16 21
-17 0 -8 8 33 28 30 15 66 37 79 49 30 28 30 28 -67 -21z"/>
<path d="M625 3070 c-3 -5 -2 -10 4 -10 5 0 13 5 16 10 3 6 2 10 -4 10 -5 0
-13 -4 -16 -10z"/>
<path d="M500 3009 c-14 -11 -18 -18 -10 -15 8 3 23 9 33 12 9 4 17 10 17 15
0 14 -13 10 -40 -12z"/>
<path d="M1642 2880 c0 -14 2 -19 5 -12 2 6 2 18 0 25 -3 6 -5 1 -5 -13z"/>
<path d="M1631 2824 c0 -11 3 -14 6 -6 3 7 2 16 -1 19 -3 4 -6 -2 -5 -13z"/>
<path d="M1001 2748 c-6 -15 -4 -32 5 -50 16 -31 18 -41 6 -34 -13 8 -36 -40
-28 -59 7 -19 26 -11 26 11 0 8 5 14 10 14 15 0 12 -38 -2 -43 -10 -3 -10 -7
0 -19 10 -13 9 -15 -12 -11 -18 4 -28 -1 -39 -19 -16 -25 -20 -78 -6 -78 5 0
9 5 9 10 0 6 4 10 8 10 10 0 7 -59 -3 -68 -4 -4 -10 -1 -12 6 -5 13 -24 17
-22 5 3 -21 -3 -23 -23 -9 -17 12 -25 13 -36 4 -9 -8 -16 -8 -20 -1 -4 6 -17
13 -29 17 -20 7 -23 4 -23 -22 0 -26 -3 -29 -22 -24 -27 7 -47 30 -48 56 0 12
-5 16 -15 12 -8 -3 -15 0 -15 7 0 8 -3 8 -9 -2 -5 -7 -13 -11 -17 -8 -11 6
-35 -18 -27 -27 4 -3 -15 -6 -41 -6 -43 0 -47 2 -41 20 5 17 2 20 -24 20 -17
0 -31 4 -31 9 0 5 -11 9 -25 9 -13 0 -22 -4 -19 -9 3 -5 1 -9 -4 -9 -6 0 -13
7 -16 16 -3 8 -11 12 -16 9 -6 -4 -16 -3 -23 2 -7 5 -21 9 -32 8 -11 0 -29 3
-40 6 -12 4 -29 1 -39 -7 -11 -8 -25 -10 -35 -5 -9 4 -32 8 -51 9 -19 2 -40 9
-46 17 -6 8 -14 15 -18 15 -3 0 -6 -43 -6 -96 0 -52 -4 -93 -8 -90 -4 2 -14 0
-22 -6 -12 -8 -12 -9 2 -4 10 3 20 1 23 -4 4 -6 2 -10 -3 -10 -6 0 -8 -10 -5
-22 4 -23 4 -23 -12 -3 -17 20 -17 19 -11 -7 7 -31 -8 -38 -22 -11 -7 11 -6
25 1 41 9 20 8 26 -6 37 -9 6 -14 15 -10 18 3 4 -6 7 -20 7 -15 0 -28 -3 -28
-7 -10 -48 -5 -74 13 -84 11 -6 22 -8 25 -5 3 3 12 -2 19 -12 13 -17 2 -42
-18 -42 -5 0 -16 -7 -24 -15 -9 -8 -12 -15 -7 -15 4 0 14 -9 20 -20 10 -15 10
-22 0 -32 -6 -7 -13 -30 -15 -50 -3 -29 0 -38 12 -38 17 0 17 0 18 -77 1 -32
6 -57 15 -64 11 -10 10 -14 -7 -26 -27 -19 -25 -40 5 -47 24 -6 35 -26 14 -26
-17 0 1 -21 27 -30 30 -12 31 -44 2 -65 -20 -13 -21 -17 -8 -25 8 -5 34 -10
57 -10 23 0 48 -3 57 -6 10 -4 33 -61 62 -153 29 -90 55 -153 68 -164 17 -16
34 -18 121 -15 110 3 149 17 274 98 60 39 64 40 152 40 66 0 105 -5 147 -21
97 -35 121 -39 342 -49 166 -7 231 -14 280 -29 36 -11 108 -27 161 -35 121
-20 142 -28 170 -65 12 -16 42 -37 68 -47 25 -9 153 -71 284 -137 299 -151
311 -161 400 -347 36 -74 71 -153 77 -175 33 -105 72 -173 122 -214 l51 -41
148 0 c134 0 155 2 216 25 38 14 98 46 135 71 37 25 95 54 129 64 39 12 79 34
109 59 l48 41 199 -9 c151 -7 208 -13 238 -26 60 -26 282 -21 500 10 55 8 147
22 205 30 159 23 429 74 479 90 24 9 99 20 165 26 217 19 269 26 426 58 120
25 159 30 173 21 10 -6 22 -8 27 -5 6 4 10 -1 10 -9 0 -19 16 -21 24 -3 5 10
7 10 12 0 6 -14 72 -17 91 -5 6 4 15 23 20 42 7 25 16 36 31 38 20 3 22 -1 22
-42 0 -69 14 -98 48 -94 27 3 27 3 27 83 l0 79 120 31 c66 17 153 46 193 65
83 38 82 33 48 150 -9 30 -15 71 -14 90 3 30 7 36 33 41 17 4 26 7 20 8 -5 1
-2 6 9 12 12 8 15 14 7 18 -6 4 -12 30 -13 59 -1 29 -6 52 -10 52 -4 0 -8 5
-8 10 0 6 6 10 14 10 7 0 18 6 24 13 9 11 1 17 -38 29 -28 9 -50 12 -50 8 0
-18 -33 -40 -59 -40 -15 0 -31 -4 -37 -10 -24 -24 -733 -148 -744 -130 -3 5
-88 -5 -205 -25 -230 -39 -643 -104 -728 -114 -46 -6 -60 -4 -64 6 -4 9 -9 10
-17 4 -13 -11 -111 -28 -208 -35 l-68 -5 0 34 c0 34 -2 35 -37 35 -20 0 -33 3
-30 7 4 4 49 7 100 8 50 1 126 5 167 9 l75 8 0 201 0 202 33 3 c17 2 32 7 32
11 0 4 -71 6 -158 3 l-157 -4 -310 60 c-171 34 -494 95 -720 137 -225 41 -430
80 -455 85 -25 5 -130 25 -235 45 -104 20 -293 56 -420 80 -126 24 -315 60
-420 80 -269 51 -491 93 -555 105 -66 12 -83 16 -177 36 -58 13 -72 20 -77 38
-4 16 -14 22 -38 24 -40 3 -42 5 -43 50 -1 20 -7 48 -14 60 -12 22 -11 23 8
17 15 -5 21 -2 21 9 0 9 5 25 12 36 16 25 2 39 -16 15 -18 -25 -37 -11 -30 24
4 20 -1 35 -22 60 -21 25 -24 35 -14 41 7 4 19 6 25 4 7 -3 15 2 18 10 4 9 1
13 -7 10 -13 -5 -68 20 -66 30 1 4 -1 12 -3 19 -4 9 -6 9 -6 0 -1 -7 -8 -13
-16 -13 -18 0 -20 17 -3 22 8 3 9 11 3 24 -8 18 -9 18 -12 -3 -5 -24 -33 -54
-33 -34 0 6 -8 11 -17 10 -11 0 -13 -3 -5 -6 6 -2 12 -8 12 -12 0 -7 -11 -7
-52 -2 -3 1 -5 17 -2 36 4 32 2 35 -21 35 -17 0 -28 -7 -34 -22z m172 -74 c9
-3 12 -14 9 -30 -4 -24 -8 -25 -46 -20 -22 3 -44 5 -48 5 -4 1 -2 12 4 26 11
25 45 33 81 19z m-22 -131 c1 -15 2 -15 6 -2 4 16 48 15 58 -1 8 -13 -6 -40
-21 -40 -27 0 -64 24 -64 42 0 23 20 24 21 1z m-123 -28 c-18 -18 -58 -29 -58
-16 0 19 30 39 51 34 17 -5 18 -8 7 -18z m-13 -65 c3 -5 12 -7 20 -3 8 3 15 0
15 -5 0 -21 -20 -22 -40 -2 -11 11 -16 20 -11 20 6 0 12 -4 16 -10z m70 -30
c3 -5 -1 -10 -10 -10 -9 0 -13 5 -10 10 3 6 8 10 10 10 2 0 7 -4 10 -10z m245
-122 c0 -4 -7 -8 -15 -8 -8 0 -15 4 -15 8 0 5 7 9 15 9 8 0 15 -4 15 -9z
m-650 -197 c22 -6 19 -8 -20 -14 -33 -4 -49 -2 -60 9 -12 12 -10 14 20 13 19
-1 46 -4 60 -8z m57 -17 c-3 -3 -12 -4 -19 -1 -8 3 -5 6 6 6 11 1 17 -2 13 -5z
m80 -20 c-3 -3 -12 -4 -19 -1 -8 3 -5 6 6 6 11 1 17 -2 13 -5z m40 -10 c-3 -3
-12 -4 -19 -1 -8 3 -5 6 6 6 11 1 17 -2 13 -5z m108 -18 c85 -17 172 -36 341
-75 215 -49 234 -54 234 -62 0 -4 21 -11 48 -14 26 -4 92 -18 147 -32 55 -13
141 -33 190 -43 50 -11 131 -29 180 -40 50 -11 143 -31 207 -45 65 -13 146
-32 180 -41 35 -9 92 -23 128 -30 36 -8 97 -24 137 -35 65 -19 71 -24 62 -40
-11 -22 -31 -26 -23 -5 4 11 0 13 -15 9 -24 -6 -55 -49 -47 -68 2 -7 -2 -16
-10 -19 -8 -3 -14 -13 -14 -21 0 -9 -7 -24 -16 -33 -12 -11 -15 -27 -11 -59 2
-23 1 -40 -4 -37 -20 12 -7 -15 14 -30 l22 -16 -30 4 c-16 3 -47 10 -68 16
-22 6 -45 9 -53 6 -10 -4 -12 -2 -8 6 5 8 2 9 -11 5 -9 -4 -24 -2 -31 4 -11 9
-371 116 -453 134 -17 4 -31 10 -31 15 0 4 51 -5 113 -21 141 -37 156 -40 190
-44 24 -3 28 0 24 16 -6 21 9 27 16 7 2 -7 8 -10 12 -6 5 4 3 18 -3 30 -6 13
-11 17 -11 11 -1 -7 -10 -13 -21 -13 -18 0 -19 3 -8 20 7 10 9 23 5 27 -5 4
-12 2 -16 -6 -6 -9 -9 -8 -13 7 -4 15 -1 18 19 14 23 -4 24 -3 14 17 -7 11 -9
21 -6 21 3 0 -3 10 -14 21 -20 21 -59 20 -46 -1 3 -5 1 -10 -4 -10 -14 0 -14
17 -1 25 6 4 8 15 5 26 -4 10 -8 31 -9 47 -2 19 -10 28 -25 30 -11 2 -21 -2
-21 -8 0 -6 4 -9 8 -6 4 2 8 -4 8 -15 0 -10 -4 -19 -7 -19 -4 0 -10 -12 -12
-27 -2 -16 -5 -2 -6 30 -1 43 -5 57 -16 57 -14 0 -20 -12 -16 -33 1 -5 -3 -6
-9 -2 -5 3 -10 -1 -10 -9 0 -9 5 -16 11 -16 5 0 7 -5 4 -10 -5 -8 -11 -8 -20
0 -10 8 -17 7 -26 -3 -27 -29 -49 33 -25 71 3 6 2 13 -4 17 -5 3 -12 -5 -16
-19 -5 -22 -8 -23 -20 -11 -19 19 -18 26 4 18 13 -4 11 0 -6 17 -14 13 -31 20
-42 17 -11 -3 -20 -1 -22 4 -2 5 -16 10 -33 11 -16 1 -34 5 -40 9 -5 4 -44 15
-85 24 -119 29 -246 61 -370 94 -63 17 -196 49 -295 72 -218 50 -325 78 -305
78 8 1 47 -5 85 -13z m2270 -300 c126 -34 230 -104 297 -200 18 -25 11 -21
-33 19 -114 102 -251 159 -411 172 -94 7 -146 -10 -209 -67 -51 -47 -62 -44
-25 5 31 41 60 62 114 81 46 18 181 12 267 -10z m-915 -176 c0 -5 -5 -10 -11
-10 -5 0 -7 5 -4 10 3 6 8 10 11 10 2 0 4 -4 4 -10z m-430 -30 c18 -12 2 -12
-25 0 -13 6 -15 9 -5 9 8 0 22 -4 30 -9z m80 -19 c0 -4 -11 -6 -25 -3 -14 2
-25 6 -25 8 0 2 11 4 25 4 14 0 25 -4 25 -9z m281 -18 c-8 -15 -10 -15 -11 -2
0 17 10 32 18 25 2 -3 -1 -13 -7 -23z m-246 7 c3 -5 2 -10 -4 -10 -5 0 -13 5
-16 10 -3 6 -2 10 4 10 5 0 13 -4 16 -10z m287 -22 c-7 -7 -12 -8 -12 -2 0 6
3 14 7 17 3 4 9 5 12 2 2 -3 -1 -11 -7 -17z m455 -170 c-3 -7 -5 -2 -5 12 0
14 2 19 5 13 2 -7 2 -19 0 -25z m568 -48 c3 -5 -1 -10 -9 -10 -8 0 -18 5 -21
10 -3 6 1 10 9 10 8 0 18 -4 21 -10z m-193 -12 c-5 -8 -6 -22 -1 -33 11 -27
11 -45 0 -45 -9 0 -31 53 -31 76 0 8 10 14 21 14 16 0 19 -3 11 -12z m1563
-93 c0 -28 -29 -25 -33 3 -3 19 0 23 15 20 10 -2 18 -12 18 -23z m-1241 -117
c3 -13 6 -32 6 -43 -1 -20 -1 -20 -15 -1 -16 22 -20 66 -6 66 5 0 11 -10 15
-22z m-40 -245 c20 -83 20 -83 1 -83 -8 0 -17 12 -21 28 -3 15 -10 40 -15 56
-13 41 -11 66 5 66 8 0 19 -25 30 -67z"/>
<path d="M2122 1680 c0 -14 2 -19 5 -12 2 6 2 18 0 25 -3 6 -5 1 -5 -13z"/>
<path d="M2536 1535 c-3 -8 -1 -15 3 -15 5 0 11 7 15 15 3 8 1 15 -3 15 -5 0
-11 -7 -15 -15z"/>
<path d="M2481 1464 c0 -11 3 -14 6 -6 3 7 2 16 -1 19 -3 4 -6 -2 -5 -13z"/>
<path d="M2384 1425 c-12 -9 -14 -14 -6 -15 7 0 20 7 28 15 20 19 4 20 -22 0z"/>
<path d="M1465 2760 c11 -5 32 -9 48 -9 15 -1 27 -5 27 -10 0 -5 -32 -9 -71
-9 -76 -1 -99 -12 -99 -46 0 -53 133 -101 166 -60 14 18 15 18 9 -3 -5 -20 10
-42 21 -30 11 11 10 94 -2 117 -7 14 -15 33 -18 43 -4 13 -16 17 -53 16 -36 0
-43 -3 -28 -9z"/>
<path d="M2050 2757 c0 -6 -11 -34 -25 -60 -14 -26 -25 -53 -24 -60 1 -6 1
-31 0 -54 -1 -47 -9 -52 -55 -28 -30 16 -45 9 -46 -20 0 -5 -18 -57 -40 -115
-22 -57 -40 -112 -40 -122 0 -15 37 -45 44 -36 2 2 18 47 35 101 28 83 36 97
54 97 39 0 45 -13 52 -117 8 -103 13 -114 45 -93 9 5 17 5 20 0 3 -5 17 -11
30 -12 19 -2 25 2 27 17 13 154 27 254 34 249 5 -3 9 -20 9 -38 0 -32 35 -252
46 -288 4 -14 8 -15 34 -1 35 17 35 19 15 66 -8 19 -17 59 -20 89 -2 29 -9 71
-14 93 -6 22 -15 100 -22 172 -10 117 -14 133 -30 133 -10 0 -21 -10 -25 -22
-4 -13 -10 -25 -14 -28 -8 -6 -45 -212 -55 -305 -18 -169 -34 -38 -28 228 2
92 1 167 -2 167 -3 0 -5 -6 -5 -13z"/>
<path d="M1908 2753 c7 -3 16 -2 19 1 4 3 -2 6 -13 5 -11 0 -14 -3 -6 -6z"/>
<path d="M2005 2740 c3 -5 8 -10 11 -10 2 0 4 5 4 10 0 6 -5 10 -11 10 -5 0
-7 -4 -4 -10z"/>
<path d="M230 2720 c0 -5 7 -10 16 -10 8 0 12 5 9 10 -3 6 -10 10 -16 10 -5 0
-9 -4 -9 -10z"/>
<path d="M196 2705 c-3 -8 -12 -15 -20 -15 -8 0 -18 -5 -21 -10 -8 -12 12 -40
28 -40 7 0 7 4 -1 12 -18 18 -14 28 11 28 16 0 23 6 23 20 0 24 -11 26 -20 5z"/>
<path d="M955 2710 c-3 -5 -2 -10 4 -10 5 0 13 5 16 10 3 6 2 10 -4 10 -5 0
-13 -4 -16 -10z"/>
<path d="M1976 2695 c-9 -26 -7 -32 5 -12 6 10 9 21 6 23 -2 3 -7 -2 -11 -11z"/>
<path d="M1596 2685 c-6 -18 2 -45 15 -45 5 0 9 14 9 30 0 32 -14 40 -24 15z"/>
<path d="M1637 2694 c-3 -3 -1 -18 4 -32 5 -14 7 -38 4 -54 -4 -16 -2 -34 3
-41 9 -11 22 -83 27 -142 1 -11 6 -36 10 -55 5 -19 7 -44 6 -55 -3 -16 -1 -17
13 -6 9 8 15 19 14 25 -3 15 40 96 51 96 13 0 42 77 35 93 -2 7 0 25 5 39 10
26 10 26 -20 11 -16 -8 -29 -22 -29 -31 0 -10 -9 -34 -20 -55 -11 -20 -20 -45
-20 -54 -1 -17 -1 -17 -11 0 -6 10 -9 27 -6 38 7 26 -20 198 -34 215 -12 15
-22 18 -32 8z"/>
<path d="M2462 2688 c-6 -6 -8 -26 -5 -44 3 -19 1 -39 -4 -46 -6 -7 -9 -35 -7
-63 2 -35 -1 -55 -14 -69 -16 -20 -16 -20 0 -7 21 16 22 15 38 -86 7 -45 18
-77 30 -88 18 -16 20 -15 39 26 12 23 21 51 21 60 0 10 4 19 8 21 4 2 25 39
45 82 35 74 36 80 21 97 -10 11 -21 19 -26 19 -4 0 -22 -29 -39 -65 -17 -36
-34 -65 -39 -65 -12 0 -23 20 -25 44 -18 194 -20 207 -43 184z m68 -248 c0 -5
-4 -10 -10 -10 -5 0 -10 5 -10 10 0 6 5 10 10 10 6 0 10 -4 10 -10z"/>
<path d="M2727 2638 c-3 -7 -23 -59 -46 -115 -23 -57 -54 -145 -70 -197 -29
-98 -27 -126 9 -126 14 0 23 15 37 63 18 59 20 62 49 59 16 -2 32 -6 36 -10 4
-4 12 -41 18 -82 15 -103 14 -101 44 -87 30 14 31 20 11 147 -8 52 -15 98 -15
101 0 4 -9 9 -20 12 -14 3 -20 14 -22 34 0 15 -2 33 -3 38 -2 6 -3 47 -4 93
-1 74 -11 103 -24 70z m13 -199 c0 -28 -13 -39 -25 -19 -8 13 5 61 16 54 5 -3
9 -18 9 -35z"/>
<path d="M2934 2642 c-21 -14 -94 -473 -80 -507 3 -8 16 -15 30 -15 28 0 29 7
41 165 11 142 17 139 42 -23 29 -190 34 -202 71 -202 l28 0 12 143 c11 126 38
304 57 378 6 23 3 27 -20 31 -19 4 -23 2 -16 -5 6 -6 11 -28 11 -48 0 -31 -4
-38 -25 -43 -14 -4 -29 -17 -34 -29 -7 -18 -19 -98 -21 -142 0 -5 -5 -3 -10 6
-5 9 -15 80 -22 158 -11 132 -13 141 -32 141 -12 0 -26 -4 -32 -8z"/>
<path d="M3596 2553 c-55 -116 -155 -430 -163 -515 -5 -54 -4 -58 18 -67 13
-5 25 -8 27 -6 1 1 16 55 32 119 45 172 44 170 86 163 20 -4 38 -8 40 -10 2
-2 13 -77 25 -168 12 -90 22 -165 23 -167 2 -1 18 1 36 4 37 8 36 -14 6 224
-30 228 -26 215 -63 212 -18 -2 -41 -1 -52 3 -19 6 -19 7 -1 61 11 31 17 67
14 83 -4 20 -1 30 10 34 19 7 22 25 4 23 -25 -2 -23 19 2 22 40 6 46 21 7 19
-29 -2 -38 -8 -51 -34z"/>
<path d="M1533 2565 c-3 -9 -6 -66 -7 -128 l-1 -112 25 0 c29 0 37 27 42 155
3 76 1 85 -14 84 -10 -1 -18 2 -18 7 0 15 -20 10 -27 -6z m24 -152 c-3 -10 -5
-2 -5 17 0 19 2 27 5 18 2 -10 2 -26 0 -35z"/>
<path d="M3487 2550 c-9 -11 -17 -23 -17 -27 0 -3 -6 -14 -14 -22 -14 -17
-119 -277 -130 -323 -4 -16 -2 -28 3 -28 5 0 13 -9 16 -21 13 -39 -3 -31 -31
17 -25 43 -26 48 -11 59 9 7 17 16 17 20 0 4 -7 2 -15 -5 -12 -10 -16 -9 -22
5 -4 11 0 22 10 30 10 7 17 16 17 21 0 4 -5 3 -12 -4 -20 -20 -27 -14 -39 33
-13 51 -19 58 -39 45 -10 -6 -11 -12 -3 -22 6 -7 25 -64 42 -126 l31 -113 -25
-33 c-14 -18 -25 -38 -25 -44 0 -24 21 -22 46 5 14 15 33 28 41 28 11 0 39 62
93 205 42 113 85 220 94 238 29 57 9 104 -27 62z"/>
<path d="M4618 2553 c6 -2 18 -2 25 0 6 3 1 5 -13 5 -14 0 -19 -2 -12 -5z"/>
<path d="M3850 2486 c0 -8 6 -17 13 -20 6 -3 3 -4 -7 -3 -18 2 -21 -8 -33 -88
-49 -346 -61 -465 -45 -465 6 0 22 4 35 9 23 9 25 17 41 168 17 154 34 235 35
168 1 -39 43 -339 48 -345 7 -8 21 23 16 37 -3 7 -1 13 5 13 5 0 7 19 4 45 -3
30 -1 45 7 45 8 0 8 6 -1 21 -8 14 -9 23 -3 25 12 5 10 62 -4 159 -6 39 -13
105 -17 148 -4 57 -9 77 -20 77 -8 0 -14 5 -14 10 0 6 -13 10 -30 10 -19 0
-30 -5 -30 -14z"/>
<path d="M4063 2494 c-16 -7 -5 -34 13 -34 8 0 14 9 14 20 0 20 -5 23 -27 14z"/>
<path d="M4222 2363 c-12 -76 -26 -170 -32 -208 -10 -74 -3 -175 11 -175 5 0
9 2 9 4 0 35 43 401 51 428 9 37 4 88 -10 88 -4 0 -17 -62 -29 -137z"/>
<path d="M4617 2463 c8 -50 13 -54 13 -10 0 25 5 37 18 40 11 3 7 5 -10 6 -25
1 -26 -1 -21 -36z"/>
<path d="M4150 2465 c0 -14 -4 -25 -8 -25 -5 0 -9 -6 -9 -12 0 -7 -10 -77 -22
-156 -11 -79 -21 -154 -21 -168 0 -42 24 -22 32 27 4 24 14 82 23 129 23 118
31 230 16 230 -6 0 -11 -11 -11 -25z"/>
<path d="M1465 2451 c-6 -20 3 -51 15 -51 14 0 20 31 10 51 -13 24 -17 24 -25
0z"/>
<path d="M4583 2327 c-1 -50 -4 -108 -7 -127 -3 -19 -8 -135 -12 -257 l-7
-222 24 -10 c60 -25 250 -39 353 -25 l46 7 -1 256 c0 248 -8 403 -20 416 -4 3
-80 7 -170 10 -173 4 -203 9 -195 31 3 8 2 14 -2 14 -4 0 -8 -42 -9 -93z m97
-337 c0 -5 -4 -10 -10 -10 -5 0 -10 5 -10 10 0 6 5 10 10 10 6 0 10 -4 10 -10z
m0 -67 c0 -10 -6 -13 -16 -9 -9 3 -20 6 -25 6 -4 0 -6 6 -3 14 7 18 44 9 44
-11z m200 7 c0 -26 -101 -36 -154 -14 -19 7 -19 8 0 15 28 11 154 11 154 -1z"/>
<path d="M6130 2370 c-18 -6 -7 -8 42 -9 37 -1 70 4 73 9 7 12 -78 12 -115 0z"/>
<path d="M6155 2331 c-56 -7 -89 -26 -97 -57 -6 -25 8 -54 26 -54 8 0 17 -7
20 -15 9 -23 129 -18 161 6 13 11 27 19 32 19 5 0 16 11 23 25 11 20 11 27 -1
41 -25 31 -87 44 -164 35z"/>
<path d="M6938 2313 c7 -3 16 -2 19 1 4 3 -2 6 -13 5 -11 0 -14 -3 -6 -6z"/>
<path d="M1412 2295 c10 -10 49 -14 43 -4 -4 5 -16 9 -27 9 -12 0 -19 -2 -16
-5z"/>
<path d="M1470 2290 c0 -5 5 -10 11 -10 5 0 7 5 4 10 -3 6 -8 10 -11 10 -2 0
-4 -4 -4 -10z"/>
<path d="M2547 2264 c-7 -38 -55 -97 -70 -87 -5 3 -23 7 -39 8 -28 3 -28 2
-12 -16 21 -23 52 -24 81 -4 23 16 58 96 51 117 -3 7 -7 -1 -11 -18z"/>
<path d="M4286 2167 c3 -10 9 -15 12 -12 3 3 0 11 -7 18 -10 9 -11 8 -5 -6z"/>
<path d="M6184 2074 c-9 -35 10 -53 26 -24 12 23 7 50 -9 50 -6 0 -14 -12 -17
-26z"/>
<path d="M6348 1990 c-32 -29 -32 -31 -14 -45 39 -30 116 -5 116 38 0 44 -58
48 -102 7z"/>
<path d="M4073 1945 c-3 -29 1 -35 16 -35 22 0 34 25 26 51 -11 34 -40 23 -42
-16z"/>
<path d="M4172 1958 c-18 -18 -14 -46 7 -57 22 -12 31 -5 31 24 0 30 -22 49
-38 33z"/>
<path d="M5151 1932 c14 -6 15 -9 3 -19 -10 -10 -15 -10 -20 -1 -5 8 -10 6
-15 -8 -7 -17 -8 -17 -8 4 -1 26 -13 28 -36 6 -10 -10 -14 -25 -11 -38 3 -12
6 -24 6 -27 0 -3 22 -9 48 -12 55 -6 119 11 138 38 19 26 0 55 -34 54 -15 0
-21 -3 -14 -6 14 -6 16 -33 2 -33 -5 0 -10 5 -10 11 0 5 -5 7 -12 3 -8 -5 -9
0 -6 14 5 19 2 22 -20 21 -20 0 -22 -2 -11 -7z m-55 -59 c-11 -11 -19 6 -11
24 8 17 8 17 12 0 3 -10 2 -21 -1 -24z"/>
<path d="M5482 1926 c-92 -10 -106 -14 -122 -36 -20 -26 -26 -50 -12 -50 5 0
12 3 16 7 4 4 23 8 44 9 20 2 53 5 72 7 19 3 64 8 100 12 36 4 74 8 85 10 13
1 21 11 23 28 3 26 2 27 -50 26 -29 -1 -99 -7 -156 -13z"/>
<path d="M6362 1870 c-84 -10 -159 -24 -167 -30 -18 -15 -29 -162 -17 -230 7
-37 7 -59 0 -67 -21 -26 -2 -42 44 -37 105 12 244 38 256 48 10 10 9 33 -3
116 -22 158 -23 152 36 175 54 21 65 39 27 41 -13 1 -92 -6 -176 -16z m-89
-286 c-9 -23 -23 -16 -23 12 0 22 2 24 14 14 8 -6 12 -18 9 -26z m191 19 c7
-17 -12 -36 -26 -27 -4 3 -8 14 -8 25 0 23 25 25 34 2z m-141 -70 c-7 -2 -19
-2 -25 0 -7 3 -2 5 12 5 14 0 19 -2 13 -5z m-106 -9 c-3 -3 -12 -4 -19 -1 -8
3 -5 6 6 6 11 1 17 -2 13 -5z m50 0 c-3 -3 -12 -4 -19 -1 -8 3 -5 6 6 6 11 1
17 -2 13 -5z"/>
<path d="M6648 1813 c7 -3 16 -2 19 1 4 3 -2 6 -13 5 -11 0 -14 -3 -6 -6z"/>
<path d="M6673 1449 c-14 -14 -6 -39 12 -39 18 0 61 37 53 45 -4 4 -19 0 -34
-10 -24 -15 -26 -16 -21 -1 7 19 5 20 -10 5z"/>
<path d="M5987 1394 c-4 -4 -4 -10 -2 -14 6 -10 45 0 45 11 0 10 -33 12 -43 3z"/>
<path d="M3175 190 c-4 -6 23 -10 75 -10 52 0 79 4 75 10 -3 6 -37 10 -75 10
-38 0 -72 -4 -75 -10z"/>
</g>
</svg>
